<!DOCTYPE svg PUBLIC "-//W3C//DTD SVG 20010904//EN" "http://www.w3.org/TR/2001/REC-SVG-20010904/DTD/svg10.dtd">
<svg version="1.0" xmlns="http://www.w3.org/2000/svg" width="376px" height="415px" viewBox="0 0 3760 4150" preserveAspectRatio="xMidYMid meet">
<g id="layer101" fill="#ff5c0a" stroke="none">
 <path d="M1800 3470 c-188 -15 -342 -57 -527 -145 -204 -97 -393 -247 -527 -419 -54 -69 -126 -178 -126 -190 0 -5 2033 -2036 2038 -2036 13 0 116 71 199 138 129 103 263 254 343 386 l23 38 -816 816 -816 816 -43 -17 c-24 -10 -78 -38 -121 -64 l-78 -47 768 -768 767 -767 -40 -47 c-22 -26 -66 -70 -98 -98 l-57 -50 -863 860 c-474 472 -863 864 -864 870 -3 19 107 132 192 198 218 169 441 252 706 263 210 9 377 -22 564 -102 142 -62 343 -211 427 -316 l32 -41 -92 -92 c-50 -50 -91 -96 -91 -102 0 -6 41 -50 91 -99 l90 -89 172 172 172 172 -19 32 c-85 149 -267 348 -413 451 -288 204 -643 303 -993 277z"/>
 <path d="M782 1416 c-89 -90 -162 -167 -162 -171 0 -16 112 -175 174 -247 76 -88 200 -198 297 -262 160 -107 394 -199 584 -231 129 -22 367 -22 490 0 104 18 205 45 205 54 0 3 -46 53 -103 109 l-103 103 -65 -10 c-93 -16 -283 -13 -383 4 -176 31 -342 98 -496 200 -73 49 -260 223 -260 242 0 6 42 51 93 101 l92 91 -90 91 c-49 49 -94 90 -100 90 -6 0 -84 -74 -173 -164z"/>
 </g>

</svg>